HIERARCHY
ROOT pelvis
{
  OFFSET 0 100 0
  CHANNELS 6 Xposition Yposition Zposition Zrotation Xrotation Yrotation
  JOINT pelvis_right_femur
  {
    OFFSET -10.78128 -3.44521 -0.5502486
    CHANNELS 3 Zrotation Xrotation Yrotation
    JOINT right_femur_tibia
    {
      OFFSET -0.8047443 -44.0398 -0.1307829
      CHANNELS 3 Zrotation Xrotation Yrotation
      JOINT right_tibia_foot
      {
        OFFSET 3.006224 -47.83518 -5
        CHANNELS 3 Zrotation Xrotation Yrotation
        End Site
        {
          OFFSET 0 -5 15
        }
      }
    }
  }
  JOINT pelvis_left_femur
  {
    OFFSET 10.78128 -3.44521 -0.5502486
    CHANNELS 3 Zrotation Xrotation Yrotation
    JOINT left_femur_tibia
    {
      OFFSET 0.8047443 -44.0398 -0.1307829
      CHANNELS 3 Zrotation Xrotation Yrotation
      JOINT left_tibia_foot
      {
        OFFSET -4.370144 -48.10324 -4.275266
        CHANNELS 3 Zrotation Xrotation Yrotation
        End Site
        {
          OFFSET 0 -5 15
        }
      }
    }
  }
  JOINT pelvis_spine1
  {
    OFFSET 0 6.468898 -3.129235
    CHANNELS 3 Zrotation Xrotation Yrotation
    JOINT spine1
    {
      OFFSET 0 23.15396 4.99043
      CHANNELS 3 Zrotation Xrotation Yrotation
      JOINT spine2
      {
        OFFSET 0 20.79997 -5.064912
        CHANNELS 3 Zrotation Xrotation Yrotation
        JOINT neck
        {
          OFFSET 0 14.38658 9.616178
          CHANNELS 3 Zrotation Xrotation Yrotation
          End Site
          {
            OFFSET 0 20 0
          }
        }
      }
      JOINT right_manubrium
      {
        OFFSET -5.722621 16.35077 3.967754
        CHANNELS 3 Zrotation Xrotation Yrotation
        JOINT right_clavicle
        {
          OFFSET -13.16364 1.694482 -4.693211
          CHANNELS 3 Zrotation Xrotation Yrotation
          JOINT right_humerus
          {
            OFFSET -28.5034 -0.3100689 -2.792744
            CHANNELS 3 Zrotation Xrotation Yrotation
            JOINT right_radius
            {
              OFFSET -25.15693 0.02248979 -1.271978
              CHANNELS 3 Zrotation Xrotation Yrotation
              End Site
              {
                OFFSET -15 0 0
              }
            }
          }
        }
      }
      JOINT left_manubrium
      {
        OFFSET 5.722621 16.35077 3.967754
        CHANNELS 3 Zrotation Xrotation Yrotation
        JOINT left_clavicle
        {
          OFFSET 13.16364 1.694482 -4.693211
          CHANNELS 3 Zrotation Xrotation Yrotation
          JOINT left_humerus
          {
            OFFSET 29.39168 -1.063119 -2.237045
            CHANNELS 3 Zrotation Xrotation Yrotation
            JOINT left_radius
            {
              OFFSET 24.59957 -0.9528479 0.9047498
              CHANNELS 3 Zrotation Xrotation Yrotation
              End Site
              {
                OFFSET 15 -0 -0
              }
            }
          }
        }
      }
    }
  }
}
MOTION
Frames: 21
Frame Time: 0.0416666666667
0 103.5113 0 1.68451 -1.616405 0.01579749 2.265364 -14.58736 9.458545 -0 41.40275 -0 -6.473794 -16.85349 -3.345152 -7.190598 10.47822 -22.21268 -0 4.556328 -0 12.01308 -13.12498 27.07568 -4.673099 -4.064724 4.434704 2.61061 10.52131 -7.940556 0.6924209 21.64873 6.677486 3.565938 -22.63459 8.015264 7.862065 -19.50622 12.14948 84.53624 38.00134 -17.84228 -0 0 16.58679 -7.527537 7.179955 4.306239 5.708907 -19.95798 -2.412654 -91.02159 20.58301 18.94979 0 0 -13.64938 12.71959 13.77974 -2.47446
0.3387872 104.0368 1.64834 1.330668 -1.282316 0.007980569 2.604223 -16.50705 8.978225 -0 41.17708 -0 -7.055241 -15.56425 -3.257281 -6.975766 10.49476 -21.55434 -0 4.288174 -0 11.89915 -13.62083 26.44911 -4.46664 -3.749461 4.227452 2.691692 10.5861 -8.157176 0.6229133 21.53698 6.750368 3.605279 -22.93651 7.968291 7.782 -19.45516 12.16818 84.7935 37.94983 -18.10702 -0 0 16.10252 -7.798276 7.234806 4.617922 5.828505 -20.4008 -2.392822 -90.65973 20.4022 18.56954 0 0 -14.16104 13.09084 13.76968 -2.60492
0.676296 104.4041 3.298986 0.5204212 -0.4174835 -0.1105753 3.981754 -19.86481 9.137554 -0 37.66409 -0 -6.389231 -15.45837 -3.174055 -6.584377 10.55322 -21.74951 -0 4.947221 -0 9.923962 -16.06976 26.03652 -3.710621 -3.322703 4.441622 2.784811 10.03121 -8.130363 0.9873994 21.34526 6.865704 3.556086 -24.02513 8.639154 7.222126 -19.6464 11.94512 84.82545 36.62729 -18.47102 -0 0 16.79497 -7.441904 7.574323 4.348885 6.234142 -20.37596 -1.821645 -92.23507 22.83686 20.21306 0 0 -14.84118 11.0386 15.25606 0.4617928
0.9983433 104.6234 5.080855 -0.1563452 0.4026606 -0.2457042 5.146896 -23.19681 9.059768 -0 34.30168 -0 -6.142517 -14.40554 -3.004848 -6.221264 10.701 -21.50266 -0 5.683086 -0 8.241315 -18.26734 25.34417 -3.13815 -2.863368 4.530241 2.863391 9.611257 -8.140902 1.278544 21.10127 6.972824 3.623956 -24.90643 9.106277 6.778217 -19.62753 11.7366 84.93812 35.66415 -18.85031 -0 0 17.00621 -7.357951 7.897871 4.176484 6.701965 -20.57198 -1.341865 -93.22464 24.30788 21.10365 0 0 -15.53716 9.792115 16.2274 2.397857
1.282824 104.6921 7.12608 -0.7391365 1.238413 -0.3409297 6.191148 -26.70702 8.739188 -0 30.53105 -0 -6.1135 -12.61527 -2.831916 -5.861072 11.13164 -20.93265 -0 6.557944 -0 6.321164 -20.61532 24.20411 -2.689747 -2.343314 4.48509 2.944523 9.159436 -8.178987 1.54264 20.85191 7.063979 3.754656 -25.64848 9.43767 6.32971 -19.37194 11.47783 85.18997 34.7998 -19.37891 -0 0 16.77001 -7.405926 8.195039 4.06668 7.199823 -20.87535 -0.916045 -93.83116 25.66938 21.44917 0 0 -16.52888 8.519821 16.9696 4.254034
1.509873 104.5985 9.585153 -1.149297 2.015339 -0.3367349 6.967868 -30.07418 8.121668 -0 26.41454 -0 -6.26768 -10.2492 -2.636208 -5.54034 11.88994 -20.03265 -0 7.542861 -0 4.280149 -22.85155 22.61883 -2.412343 -1.822585 4.311457 3.01441 8.699118 -8.22239 1.759786 20.59704 7.121 3.937808 -26.13456 9.586839 5.902431 -18.84658 11.17851 85.55586 34.07934 -19.9925 -0 0 16.07883 -7.604242 8.433362 3.990422 7.727583 -21.25892 -0.5818733 -93.83753 26.58675 21.00588 0 0 -17.72071 7.570531 17.3451 5.517214
1.657768 104.3373 12.61786 -1.349648 2.655772 -0.170646 7.351727 -32.99481 7.135882 -0 22.1462 -0 -6.585026 -7.519453 -2.465835 -5.27238 13.07529 -18.81483 -0 8.648084 -0 2.072863 -24.74316 20.50239 -2.315723 -1.337863 3.967376 3.072755 8.216222 -8.274687 1.901403 20.37591 7.12605 4.132191 -26.26983 9.508253 5.496466 -18.01235 10.83958 86.06768 33.51109 -20.69884 -0 0 14.87282 -7.930419 8.576157 3.96478 8.204428 -21.65752 -0.4023781 -93.12507 27.08121 19.64447 0 0 -19.12423 6.890752 17.28745 6.21177
1.71342 103.933 16.36517 -1.356735 3.085519 0.2048024 7.319064 -35.05384 5.83427 -0 18.14419 -0 -7.029754 -4.811649 -2.354696 -5.05363 14.65316 -17.35479 -0 10.02797 -0 -0.2174362 -25.88471 17.92006 -2.341912 -0.9464002 3.447509 3.117841 7.733522 -8.333192 1.939842 20.21383 7.074466 4.293871 -26.01838 9.198601 5.132173 -16.90462 10.48893 86.71098 33.11786 -21.44498 -0 0 13.22049 -8.347551 8.618778 3.987621 8.530937 -21.98077 -0.4264906 -91.73998 27.04423 17.45082 0 0 -20.57449 6.543075 16.76004 6.24981
1.680314 103.4712 20.905 -1.282238 3.250818 0.798633 7.044422 -35.84582 4.467764 -0 15.07969 -0 -7.57283 -2.662476 -2.358527 -4.826233 16.40034 -15.80454 -0 12.06281 -0 -2.449699 -25.79244 15.07672 -2.331294 -0.6916192 2.777214 3.151917 7.297044 -8.401539 1.857307 20.13964 6.981176 4.368746 -25.45296 8.722076 4.828659 -15.65443 10.1764 87.44432 32.90901 -22.15109 -0 0 11.31993 -8.796424 8.615174 4.071289 8.564899 -22.11336 -0.6809602 -89.99311 26.52438 14.86744 0 0 -21.79165 6.448956 15.83306 5.811717
1.585413 103.1251 26.19946 -1.332758 3.145936 1.544958 6.919499 -35.10651 3.485674 -0 13.70074 -0 -8.204883 -1.627825 -2.501626 -4.475014 17.78169 -14.39003 -0 15.45627 -0 -4.406367 -24.04666 12.36204 -2.033701 -0.5891621 2.067869 3.174879 6.992628 -8.476688 1.664345 20.16493 6.890539 4.317558 -24.80263 8.228952 4.602913 -14.51991 9.975483 88.1687 32.87392 -22.69636 -0 0 9.547461 -9.224697 8.700078 4.23198 8.184851 -21.962 -1.124164 -88.45267 25.7571 12.72773 0 0 -22.3798 6.464804 14.74091 5.284972
1.476043 103.1397 32.06565 -1.705336 2.806652 2.27853 7.294333 -32.82526 3.267621 -0 14.40379 -0 -8.947453 -2.006466 -2.736122 -3.895906 17.9771 -13.32382 -0 21.11796 -0 -5.905012 -20.56345 10.21032 -1.239245 -0.6013893 1.542034 3.173888 6.928591 -8.533524 1.41182 20.28303 6.857682 4.145513 -24.37904 7.897089 4.464895 -13.81803 9.958952 88.73885 32.98362 -22.95129 -0 0 8.356969 -9.631083 9.051455 4.487033 7.374802 -21.53163 -1.632231 -87.72473 25.1465 11.9693 0 0 -22.00941 6.42292 13.84536 5.169407
1.410334 103.7466 38.21051 -2.374051 2.275194 2.767396 8.086998 -29.18992 3.744222 -0 16.69616 -0 -9.820282 -3.558279 -2.912332 -3.158036 16.13881 -12.64128 -0 29.68335 -0 -6.87412 -15.8356 8.887778 -0.01501507 -0.630815 1.499388 3.111184 7.192472 -8.50568 1.178881 20.47814 6.901086 3.938706 -24.35586 7.7979 4.424729 -13.75765 10.15833 89.0042 33.21921 -22.81919 -0 0 8.0543 -10.1022 9.765764 4.833974 6.308426 -20.99381 -2.045873 -88.12515 24.91112 13.06861 0 0 -20.67169 6.285913 13.4353 5.687656
1.442232 105.0325 44.33014 -2.949399 1.546392 2.822145 8.693699 -24.41282 4.335561 -0 19.08933 -0 -10.77501 -5.538705 -2.837574 -2.566764 11.84129 -12.12716 -0 40.76094 -0 -7.300583 -10.90343 8.385103 1.153474 -0.5434266 2.169081 2.927642 7.784698 -8.286635 1.036554 20.75312 6.954901 3.846709 -24.53855 7.790546 4.493566 -14.27026 10.53063 88.86838 33.60485 -22.24771 -0 0 8.577692 -10.77799 10.72056 5.236979 5.321725 -20.63496 -2.277319 -89.40304 24.76398 15.53897 0 0 -18.78339 6.236801 13.49075 6.449988
1.590694 106.8508 50.20212 -2.868723 0.5382361 2.423306 8.43394 -18.63697 4.378093 -0 19.81856 -0 -11.6941 -7.164693 -2.404844 -2.418393 5.375731 -11.49212 -0 52.41855 -0 -7.136791 -6.950344 8.54273 1.577842 -0.2299253 3.517743 2.573437 8.577506 -7.768581 1.012199 21.14575 6.886959 3.981306 -24.42317 7.592228 4.654294 -15.0399 10.97206 88.30611 34.19108 -21.16337 -0 0 9.541607 -11.74783 11.57893 5.652113 4.739748 -20.65349 -2.374471 -90.76914 24.14499 18.07252 0 0 -16.9098 6.57369 13.68995 6.617546
1.810149 108.8451 55.70001 -1.867783 -0.8374556 1.768434 7.16867 -12.04293 3.643555 -0 17.94059 -0 -12.48613 -8.164512 -1.701432 -2.646156 -2.379147 -10.58877 -0 61.40487 -0 -6.362574 -4.765036 9.291522 0.8761856 0.34212 5.17024 2.055189 9.340575 -6.914332 1.080975 21.70079 6.593136 4.312861 -23.59764 7.007927 4.816538 -15.76461 11.37448 87.31735 34.96125 -19.39099 -0 0 10.56919 -12.97272 11.97487 6.099661 4.670287 -20.96558 -2.463566 -91.48349 22.83279 19.49417 0 0 -15.29874 7.389165 13.6914 5.628204
2.020807 110.5601 60.76309 -0.301396 -2.475226 1.159591 5.483992 -5.077332 2.419396 -0 13.85654 -0 -13.15223 -8.93171 -0.976724 -2.748758 -10.3268 -9.38987 -0 64.19309 -0 -5.107063 -4.413728 10.74592 -0.6581214 1.12756 6.540847 1.468103 9.83275 -5.830603 1.174725 22.39831 6.094678 4.66766 -22.12354 6.112071 4.815083 -16.4108 11.67082 85.88726 35.73937 -16.70915 -0 0 11.60241 -14.31839 11.71966 6.733222 4.951583 -21.22988 -2.621319 -91.50255 21.16693 19.66795 0 0 -13.71217 8.366224 13.41086 3.771306
2.190051 111.5859 65.41392 1.022165 -3.940434 0.7524986 4.266281 1.492815 1.139162 -0 8.894406 -0 -13.73932 -10.1742 -0.4591213 -2.094223 -17.4445 -7.87722 -0 58.64748 -0 -3.621326 -5.246409 12.99324 -2.184952 1.995056 7.133039 0.9740108 9.910493 -4.777259 1.196956 23.10064 5.557861 4.822908 -20.53082 5.213438 4.48846 -17.20043 11.82432 84.03655 36.23714 -13.09419 -0 0 12.87561 -15.6659 10.88223 7.813129 5.312601 -21.09277 -2.771945 -91.35965 19.71632 19.39493 0 0 -11.73459 9.026466 13.05111 1.951185
2.362609 111.705 69.82069 1.402156 -4.66084 0.4218917 4.033083 6.956078 0.03228601 -0 4.435146 -0 -14.25123 -12.2953 -0.1661541 -0.4558383 -22.9574 -6.136105 -0 45.62702 -0 -2.15683 -6.24294 15.78424 -2.905173 2.67523 6.85003 0.706175 9.584171 -4.043923 1.066934 23.60092 5.20995 4.65777 -19.42764 4.63631 3.800724 -18.32257 11.78184 81.92258 36.26924 -8.949182 -0 0 14.56596 -17.0001 9.734377 9.529878 5.600836 -20.44798 -2.689727 -91.53106 18.76888 19.54681 0 0 -9.230373 9.202729 12.85878 0.8789695
2.606333 110.9791 74.2964 0.7868966 -4.355405 -0.04923814 4.531621 11.16251 -0.8913278 -0 1.366781 -0 -14.6001 -14.90468 0.1189075 1.595065 -26.47114 -4.581869 -0 29.16252 -0 -0.9007606 -6.596436 18.51551 -2.669611 2.823652 6.08143 0.6613519 8.991386 -3.745768 0.7952914 23.7673 5.190775 4.273347 -19.05359 4.503574 2.908358 -19.64278 11.47553 79.83815 35.93506 -5.012147 -0 0 16.46441 -18.39002 8.601984 11.77686 5.855391 -19.48788 -2.166855 -92.04363 18.11075 20.32977 0 0 -6.494662 9.180749 12.87361 0.5277897
2.964632 109.7007 79.19425 -0.1897698 -3.306841 -0.7404627 4.954857 14.5423 -1.654549 -0 0.2325366 -0 -14.64325 -16.85884 0.6636566 2.960997 -28.01742 -3.866212 -0 14.4929 -0 0.04818659 -6.152197 20.58852 -2.037755 2.278653 5.425417 0.6911632 8.335299 -3.732597 0.5126287 23.64706 5.452575 3.938606 -19.1618 4.698629 2.097113 -20.73754 10.91072 78.09839 35.50742 -1.967009 -0 0 18.04372 -19.85918 7.698194 14.10152 6.169779 -18.51408 -1.241986 -92.57221 17.35422 21.28415 0 0 -3.979491 9.357733 12.94406 0.3626125
3.460391 108.253 84.77522 -0.7579945 -2.222606 -1.608177 4.605026 17.58026 -2.169838 -0 1.615806 -0 -14.3179 -16.87956 1.542807 2.860257 -27.91286 -4.378579 -0 5.307175 -0 0.670518 -5.337326 21.77633 -1.714819 1.226614 5.241578 0.6103907 7.834421 -3.717649 0.3883826 23.41698 5.807473 3.880337 -19.30843 5.004952 1.621373 -21.24346 10.23063 76.96602 35.10942 -0.1407658 -0 0 18.88202 -21.28319 7.059191 15.94061 6.526072 -17.71333 -0.2447099 -92.84418 16.40361 21.91577 0 0 -1.923702 9.816049 12.90949 0.01196443
